<?xml version="1.0" encoding="UTF-8"?> <svg xmlns="http://www.w3.org/2000/svg" id="Layer_1" data-name="Layer 1" viewBox="0 0 579.19 134.22"><defs><style> .cls-1 { fill: #fff; } </style></defs><g><g><path class="cls-1" d="m40.75,32.47v-11.09c0-3.6,2.93-6.53,6.53-6.53h39.15c3.6,0,6.53,2.93,6.53,6.53v11.09l13.05,7.71v-18.8c0-10.79-8.78-19.58-19.58-19.58h-39.15c-10.79,0-19.58,8.78-19.58,19.58v18.8l13.05-7.71Z"></path><path class="cls-1" d="m40.75,112.68v-49.89l-13.05,7.71v42.17c0,10.79,8.78,19.58,19.58,19.58h13.11v-13.05h-13.11c-3.6,0-6.53-2.93-6.53-6.53Z"></path><polygon class="cls-1" points="92.95 62.8 92.95 86.64 106 86.64 106 70.51 92.95 62.8"></polygon></g><path class="cls-1" d="m8.13,73.45c-2.23,0-4.41-1.15-5.62-3.21-1.83-3.1-.81-7.1,2.3-8.94l52.09-30.79c6.15-3.63,13.78-3.63,19.92,0l52.09,30.79c3.1,1.83,4.13,5.84,2.3,8.94-1.83,3.1-5.84,4.13-8.94,2.3l-52.09-30.79c-2.05-1.21-4.59-1.21-6.64,0l-52.09,30.79c-1.04.62-2.19.91-3.31.91Z"></path><path class="cls-1" d="m106,132.26h-39.09v-39.09h39.09v39.09Zm-26.04-13.05h12.99v-12.99h-12.99v12.99Z"></path></g><g><path class="cls-1" d="m134.95,130.78c-3.3,0-6.16-.6-8.58-1.79-2.42-1.2-4.56-2.87-6.42-5.02l8.4-8.25c.91,1.2,1.94,2.09,3.09,2.69,1.15.6,2.44.9,3.88.9,1.34,0,2.51-.27,3.52-.83,1-.55,1.82-1.36,2.44-2.44.62-1.08.93-2.43.93-4.06v-32.95h12.92v32.3c0,3.97-.81,7.41-2.44,10.3-1.63,2.9-3.94,5.14-6.93,6.75-2.99,1.6-6.59,2.4-10.8,2.4Z"></path><path class="cls-1" d="m179.67,130.78c-3.73,0-7.08-.81-10.05-2.44-2.97-1.63-5.3-3.84-7-6.64-1.7-2.8-2.55-5.92-2.55-9.37s.85-6.69,2.55-9.44c1.7-2.75,4.03-4.93,7-6.53,2.97-1.6,6.29-2.4,9.98-2.4s7.21.8,10.16,2.4c2.94,1.6,5.26,3.78,6.96,6.53,1.7,2.75,2.55,5.9,2.55,9.44s-.84,6.57-2.51,9.37c-1.68,2.8-4,5.01-6.96,6.64-2.97,1.63-6.34,2.44-10.12,2.44Zm-.07-11.2c1.39,0,2.61-.31,3.66-.93,1.05-.62,1.87-1.47,2.44-2.55s.86-2.33.86-3.77-.3-2.69-.9-3.77c-.6-1.08-1.41-1.91-2.44-2.51-1.03-.6-2.24-.9-3.62-.9-1.29,0-2.45.31-3.48.93-1.03.62-1.84,1.47-2.44,2.55-.6,1.08-.9,2.33-.9,3.77s.3,2.62.9,3.7c.6,1.08,1.41,1.93,2.44,2.55,1.03.62,2.19.93,3.48.93Z"></path><path class="cls-1" d="m240.17,102.93c-1.44-2.77-3.46-4.94-6.07-6.5-2.61-1.55-5.61-2.33-9.01-2.33-2.25,0-4.32.39-6.21,1.18-.79.33-1.51.73-2.19,1.17v-18.86h-12.56v52.33h12.27v-2.09c.77.56,1.6,1.06,2.51,1.48,1.91.89,3.97,1.33,6.17,1.33,3.4,0,6.39-.79,8.97-2.37,2.58-1.58,4.6-3.74,6.07-6.5,1.46-2.75,2.19-5.9,2.19-9.44s-.72-6.63-2.15-9.4Zm-11.38,13.1c-.55,1.08-1.35,1.93-2.4,2.55-1.05.62-2.25.93-3.59.93s-2.45-.31-3.48-.93c-1.03-.62-1.83-1.46-2.4-2.51-.57-1.05-.86-2.3-.86-3.73s.27-2.61.83-3.66c.55-1.05,1.34-1.89,2.37-2.51,1.03-.62,2.19-.93,3.48-.93,1.39,0,2.61.31,3.66.93,1.05.62,1.85,1.47,2.4,2.55.55,1.08.83,2.29.83,3.62s-.28,2.62-.83,3.7Z"></path><path class="cls-1" d="m264.22,130.78c-4.26,0-7.94-.66-11.05-1.97-3.11-1.32-5.96-3.36-8.54-6.14l8.18-8.18c1.72,1.82,3.59,3.23,5.6,4.24,2.01,1,4.28,1.51,6.82,1.51,2.15,0,3.82-.37,4.99-1.11,1.17-.74,1.76-1.76,1.76-3.05s-.44-2.25-1.33-3.01c-.89-.76-2.02-1.44-3.41-2.01-1.39-.57-2.94-1.15-4.67-1.72s-3.42-1.24-5.1-2.01c-1.68-.76-3.22-1.73-4.63-2.91-1.41-1.17-2.55-2.61-3.41-4.31-.86-1.7-1.29-3.84-1.29-6.42,0-3.21.78-5.98,2.33-8.33,1.55-2.34,3.72-4.13,6.5-5.35,2.77-1.22,6-1.83,9.69-1.83s7.09.62,10.23,1.87c3.13,1.24,5.68,2.97,7.64,5.17l-8.18,8.18c-1.53-1.58-3.08-2.75-4.63-3.52-1.56-.76-3.29-1.15-5.2-1.15-1.77,0-3.16.31-4.16.93-1,.62-1.51,1.51-1.51,2.66s.43,2.07,1.29,2.76c.86.69,2,1.33,3.41,1.9,1.41.57,2.97,1.15,4.67,1.72,1.7.57,3.38,1.25,5.06,2.01,1.67.77,3.22,1.75,4.63,2.94,1.41,1.2,2.55,2.7,3.41,4.52.86,1.82,1.29,4.02,1.29,6.6,0,5.02-1.79,8.95-5.38,11.77-3.59,2.82-8.59,4.24-15,4.24Z"></path><path class="cls-1" d="m296.52,90.8c-1.91,0-3.49-.66-4.74-1.97-1.24-1.32-1.87-2.91-1.87-4.77s.62-3.45,1.87-4.74c1.24-1.29,2.82-1.94,4.74-1.94s3.42.65,4.67,1.94c1.24,1.29,1.87,2.87,1.87,4.74s-.62,3.46-1.87,4.77c-1.24,1.32-2.8,1.97-4.67,1.97Zm-6.39,39.12v-35.1h12.56v35.1h-12.56Z"></path><polygon class="cls-1" points="335.06 94.82 327.31 94.82 327.31 80.32 314.75 80.32 314.75 94.82 307.07 94.82 307.07 105.23 314.75 105.23 314.75 129.92 327.31 129.92 327.31 105.23 335.06 105.23 335.06 94.82"></polygon><path class="cls-1" d="m371.56,102.47c-1.56-2.66-3.71-4.74-6.46-6.24-2.75-1.51-5.9-2.26-9.44-2.26s-6.92.8-9.83,2.4c-2.92,1.6-5.2,3.78-6.85,6.53-1.65,2.75-2.48,5.92-2.48,9.51s.85,6.7,2.55,9.47c1.7,2.78,4.06,4.95,7.07,6.53,3.01,1.58,6.51,2.37,10.48,2.37,3.06,0,5.83-.51,8.29-1.54,2.46-1.03,4.6-2.55,6.42-4.56l-6.6-6.46c-1.05,1.2-2.25,2.07-3.59,2.62-1.34.55-2.85.83-4.52.83-1.82,0-3.35-.35-4.59-1.04-1.25-.69-2.2-1.73-2.87-3.12-.17-.35-.31-.72-.44-1.11l24.63-.11c.19-.96.33-1.81.43-2.55.1-.74.14-1.45.14-2.12,0-3.45-.78-6.5-2.33-9.15Zm-19.81,1.65c1.17-.74,2.52-1.11,4.06-1.11s2.8.32,3.8.97c1,.65,1.77,1.61,2.3,2.91.17.43.31.9.43,1.4l-13.65.08c.11-.35.23-.68.37-1.01.62-1.41,1.52-2.49,2.69-3.23Z"></path><path class="cls-1" d="m385.38,130.64c-1.2,0-2.18-.41-2.94-1.22-.77-.81-1.15-1.79-1.15-2.94s.38-2.12,1.15-2.91c.76-.79,1.75-1.18,2.94-1.18s2.11.39,2.87,1.18c.76.79,1.15,1.76,1.15,2.91s-.38,2.13-1.15,2.94c-.77.81-1.72,1.22-2.87,1.22Z"></path><path class="cls-1" d="m414.52,130.64c-3.3,0-6.28-.78-8.94-2.33-2.66-1.55-4.75-3.67-6.28-6.35-1.53-2.68-2.3-5.67-2.3-8.97s.76-6.28,2.3-8.94c1.53-2.66,3.62-4.75,6.28-6.28,2.66-1.53,5.63-2.3,8.94-2.3,2.58,0,4.98.48,7.18,1.44,2.2.96,4.07,2.3,5.6,4.02l-3.37,3.45c-1.15-1.29-2.52-2.28-4.13-2.98-1.6-.69-3.36-1.04-5.28-1.04-2.35,0-4.45.55-6.32,1.65-1.87,1.1-3.33,2.6-4.38,4.49-1.05,1.89-1.58,4.06-1.58,6.5s.53,4.63,1.58,6.57c1.05,1.94,2.51,3.46,4.38,4.56,1.87,1.1,3.97,1.65,6.32,1.65,1.91,0,3.68-.35,5.31-1.04,1.63-.69,3.04-1.69,4.24-2.98l3.37,3.37c-1.58,1.77-3.48,3.13-5.71,4.09-2.23.96-4.63,1.44-7.21,1.44Z"></path><path class="cls-1" d="m449.12,130.64c-3.3,0-6.27-.79-8.9-2.37-2.63-1.58-4.73-3.71-6.28-6.39-1.56-2.68-2.33-5.67-2.33-8.97s.78-6.2,2.33-8.83c1.55-2.63,3.65-4.72,6.28-6.28,2.63-1.55,5.6-2.33,8.9-2.33s6.21.77,8.86,2.3c2.66,1.53,4.76,3.62,6.32,6.28,1.55,2.66,2.33,5.61,2.33,8.86s-.78,6.35-2.33,9.01c-1.56,2.66-3.66,4.77-6.32,6.35-2.66,1.58-5.61,2.37-8.86,2.37Zm0-4.88c2.34,0,4.45-.55,6.32-1.65,1.87-1.1,3.33-2.63,4.38-4.59,1.05-1.96,1.58-4.16,1.58-6.6s-.54-4.53-1.61-6.42c-1.08-1.89-2.54-3.38-4.38-4.49-1.84-1.1-3.94-1.65-6.28-1.65s-4.45.55-6.32,1.65c-1.87,1.1-3.33,2.6-4.38,4.49-1.05,1.89-1.58,4.03-1.58,6.42s.53,4.7,1.58,6.64c1.05,1.94,2.51,3.46,4.38,4.56,1.87,1.1,3.97,1.65,6.32,1.65Z"></path><path class="cls-1" d="m501.3,79.1v22.71c-.12-.19-.23-.39-.36-.57-1.34-1.84-3.05-3.27-5.13-4.27-2.08-1-4.37-1.51-6.85-1.51-3.11,0-5.92.78-8.43,2.33-2.51,1.56-4.49,3.66-5.92,6.32-1.44,2.66-2.15,5.66-2.15,9.01s.72,6.28,2.15,8.94c1.44,2.66,3.4,4.75,5.89,6.28,2.49,1.53,5.31,2.3,8.47,2.3,2.54,0,4.84-.53,6.93-1.58,2.08-1.05,3.78-2.5,5.1-4.34.12-.17.21-.35.32-.52v5.73h5.1v-50.82h-5.1Zm-1.18,40.55c-.98,1.91-2.36,3.42-4.13,4.52-1.77,1.1-3.83,1.65-6.17,1.65s-4.44-.54-6.28-1.62c-1.84-1.08-3.28-2.58-4.31-4.52-1.03-1.94-1.54-4.15-1.54-6.64s.53-4.69,1.58-6.6c1.05-1.91,2.48-3.42,4.27-4.52,1.79-1.1,3.86-1.65,6.21-1.65s4.4.54,6.17,1.61c1.77,1.08,3.16,2.57,4.16,4.49,1,1.91,1.51,4.14,1.51,6.68s-.49,4.69-1.47,6.6Z"></path><path class="cls-1" d="m545.4,103.33c-1.36-2.46-3.23-4.39-5.6-5.78-2.37-1.39-5.11-2.08-8.22-2.08s-6.2.77-8.83,2.3c-2.63,1.53-4.7,3.62-6.21,6.28-1.51,2.66-2.26,5.63-2.26,8.94s.78,6.36,2.33,9.04c1.55,2.68,3.67,4.79,6.35,6.32,2.68,1.53,5.69,2.3,9.04,2.3,2.68,0,5.19-.5,7.54-1.51,2.34-1,4.31-2.46,5.89-4.38l-3.3-3.3c-1.2,1.48-2.66,2.6-4.38,3.34-1.72.74-3.59,1.11-5.6,1.11-2.54,0-4.77-.55-6.71-1.65-1.94-1.1-3.45-2.63-4.52-4.59-.78-1.41-1.26-3-1.48-4.74h27.64c.14-.67.24-1.26.29-1.76.05-.5.07-.94.07-1.33,0-3.21-.68-6.04-2.05-8.51Zm-20.28-1.58c1.82-1.08,3.95-1.62,6.39-1.62,2.3,0,4.27.5,5.92,1.51,1.65,1,2.92,2.4,3.8,4.2.69,1.39,1.08,2.99,1.21,4.77h-22.98c.22-1.62.67-3.1,1.38-4.41,1.03-1.89,2.45-3.37,4.27-4.45Z"></path><path class="cls-1" d="m565.47,130.64c-1.82,0-3.57-.25-5.24-.75-1.68-.5-3.19-1.21-4.56-2.12-1.36-.91-2.57-1.99-3.62-3.23l3.3-3.3c1.34,1.63,2.86,2.84,4.56,3.62,1.7.79,3.6,1.18,5.71,1.18s3.94-.43,5.2-1.29c1.27-.86,1.9-2.06,1.9-3.59,0-1.44-.44-2.55-1.33-3.34-.89-.79-2.05-1.44-3.48-1.94-1.44-.5-2.94-.98-4.52-1.44-1.58-.45-3.08-1.03-4.49-1.72-1.41-.69-2.57-1.65-3.48-2.87-.91-1.22-1.36-2.86-1.36-4.92,0-1.91.48-3.58,1.44-4.99.96-1.41,2.3-2.51,4.02-3.3s3.8-1.18,6.24-1.18,4.83.46,6.89,1.36c2.06.91,3.71,2.25,4.95,4.02l-3.3,3.3c-.96-1.29-2.19-2.3-3.7-3.01s-3.19-1.08-5.06-1.08c-2.15,0-3.79.42-4.92,1.26-1.13.84-1.69,1.93-1.69,3.27s.45,2.31,1.36,3.05c.91.74,2.07,1.34,3.48,1.79,1.41.46,2.91.91,4.49,1.36,1.58.46,3.09,1.05,4.52,1.79,1.44.74,2.6,1.75,3.48,3.01.88,1.27,1.33,2.98,1.33,5.13,0,3.01-1.09,5.42-3.27,7.21-2.18,1.79-5.13,2.69-8.86,2.69Z"></path></g><g><polygon class="cls-1" points="561.02 79.95 563.84 79.95 563.84 87.25 564.98 87.25 564.98 79.95 567.8 79.95 567.8 78.92 561.02 78.92 561.02 79.95"></polygon><polygon class="cls-1" points="576.45 78.92 573.19 84.27 569.93 78.92 569.14 78.92 569.14 87.25 570.27 87.25 570.27 81.39 572.79 85.55 573.59 85.55 576.11 81.39 576.11 87.25 577.24 87.25 577.24 78.92 576.45 78.92"></polygon></g></svg> 