<?xml version="1.0" encoding="utf-8"?>
<!-- Generator: Adobe Illustrator 27.3.1, SVG Export Plug-In . SVG Version: 6.00 Build 0)  -->
<svg version="1.1" id="Layer_1" xmlns="http://www.w3.org/2000/svg" xmlns:xlink="http://www.w3.org/1999/xlink" x="0px" y="0px"
	 viewBox="0 0 495 512" style="enable-background:new 0 0 495 512;" xml:space="preserve">
<style type="text/css">
	.st0{fill:#FFFFFF;}
	.st1{fill:#477373;}
	.st2{fill:#55B593;}
</style>
<path class="st0" d="M494.3,451.3c-0.2-3.9-0.2-7.7,0-11.6c0.6-10.5-2.2-21.1-8.6-30.2c-6.1-8.6-14.4-15.4-24.1-19.8
	c-7.9-3.5-16.4-5.3-25.3-5.3c-5.2,0-10.2,0.6-15.1,1.8L420,386c-3.5-3.9-7.7-7.2-12.4-9.8c-5.1-2.8-8.1-8.3-8.1-14.1v-70.2
	c0-1.6-0.1-3.2-0.2-4.7c1.5,0.1,2.9,0.1,4.4,0.1c23,0,44.5-12.3,56.2-32.1c9.3-15.7,11.6-34.1,6.4-51.7c-4.8-16.2-16-29.8-30.5-38.4
	l-36.2-21.4v-42.9c0-55.2-44.8-100-100-100H195.4c-55.2,0-100,44.8-100,100v42.9L58,165.9c-31,18.3-41.3,58.4-23,89.4
	c11.7,19.8,33.2,32.1,56.2,32.1l0,0c1.4,0,2.8,0,4.2-0.1v56.6c0,2.8,0.1,5.5,0.3,8.2c0.8,9.8-6.7,18.2-16.6,18.1H79H67.8
	c-26.4,0-47.9,21.4-47.9,47.9l-4.6,4.5C-2.6,440.2-4,470.2,12.6,489c5.7,6.5,12.5,11.7,20.2,15.5c8.8,4.3,18.4,6.5,28.7,6.5
	c6.9,0,369.6-0.1,374.5-0.1c14.4,0,27.6-4.6,38.2-13.3c12.9-10.6,20.3-26.4,20.3-43.2C494.4,453.3,494.4,452.3,494.3,451.3
	L494.3,451.3z"/>
<path class="st1" d="M61.5,463.1c-2.9,0-5.4-0.5-7.5-1.6s-4-2.5-5.6-4.4l7.3-7.2c0.8,1,1.7,1.8,2.7,2.3s2.1,0.8,3.4,0.8
	c1.2,0,2.2-0.2,3.1-0.7s1.6-1.2,2.1-2.1s0.8-2.1,0.8-3.5V418H79v28.1c0,3.5-0.7,6.4-2.1,9c-1.4,2.5-3.4,4.5-6,5.9
	C68.2,462.4,65.1,463.1,61.5,463.1L61.5,463.1z"/>
<path class="st1" d="M100.4,463.1c-3.2,0-6.2-0.7-8.7-2.1c-2.6-1.4-4.6-3.3-6.1-5.8s-2.2-5.1-2.2-8.1s0.7-5.8,2.2-8.2
	c1.5-2.4,3.5-4.3,6.1-5.7c2.6-1.4,5.5-2.1,8.7-2.1s6.3,0.7,8.8,2.1c2.6,1.4,4.6,3.3,6.1,5.7c1.5,2.4,2.2,5.1,2.2,8.2
	s-0.7,5.7-2.2,8.1s-3.5,4.4-6.1,5.8C106.6,462.4,103.7,463.1,100.4,463.1L100.4,463.1z M100.3,453.4c1.2,0,2.3-0.3,3.2-0.8
	c0.9-0.5,1.6-1.3,2.1-2.2s0.8-2,0.8-3.3s-0.3-2.3-0.8-3.3s-1.2-1.7-2.1-2.2s-1.9-0.8-3.2-0.8c-1.1,0-2.1,0.3-3,0.8s-1.6,1.3-2.1,2.2
	c-0.5,0.9-0.8,2-0.8,3.3s0.3,2.3,0.8,3.2s1.2,1.7,2.1,2.2S99.2,453.4,100.3,453.4z"/>
<path class="st1" d="M153,438.9c-1.2-2.4-3-4.3-5.3-5.6s-4.9-2-7.8-2c-2,0-3.8,0.3-5.4,1c-0.7,0.3-1.3,0.6-1.9,1v-16.4h-10.9v45.5
	h10.7v-1.8c0.7,0.5,1.4,0.9,2.2,1.3c1.7,0.8,3.4,1.2,5.4,1.2c3,0,5.6-0.7,7.8-2.1s4-3.3,5.3-5.6c1.3-2.4,1.9-5.1,1.9-8.2
	S154.3,441.3,153,438.9L153,438.9z M143.1,450.3c-0.5,0.9-1.2,1.7-2.1,2.2c-0.9,0.5-2,0.8-3.1,0.8s-2.1-0.3-3-0.8s-1.6-1.3-2.1-2.2
	s-0.8-2-0.8-3.2s0.2-2.3,0.7-3.2s1.2-1.6,2.1-2.2c0.9-0.5,1.9-0.8,3-0.8c1.2,0,2.3,0.3,3.2,0.8s1.6,1.3,2.1,2.2s0.7,2,0.7,3.1
	S143.6,449.4,143.1,450.3z"/>
<path class="st1" d="M173.9,463.1c-3.7,0-6.9-0.6-9.6-1.7c-2.7-1.1-5.2-2.9-7.4-5.3l7.1-7.1c1.5,1.6,3.1,2.8,4.9,3.7
	s3.7,1.3,5.9,1.3c1.9,0,3.3-0.3,4.3-1c1-0.6,1.5-1.5,1.5-2.6s-0.4-2-1.2-2.6c-0.8-0.7-1.8-1.2-3-1.8s-2.6-1-4.1-1.5s-3-1.1-4.4-1.8
	c-1.5-0.7-2.8-1.5-4-2.5s-2.2-2.3-3-3.8s-1.1-3.3-1.1-5.6c0-2.8,0.7-5.2,2-7.2c1.4-2,3.2-3.6,5.6-4.6c2.4-1.1,5.2-1.6,8.4-1.6
	s6.2,0.5,8.9,1.6s4.9,2.6,6.6,4.5l-7.1,7.1c-1.3-1.4-2.7-2.4-4-3.1c-1.4-0.7-2.9-1-4.5-1c-1.5,0-2.8,0.3-3.6,0.8s-1.3,1.3-1.3,2.3
	s0.4,1.8,1.1,2.4s1.7,1.1,3,1.6s2.6,1,4.1,1.5s2.9,1.1,4.4,1.8c1.5,0.7,2.8,1.5,4,2.6s2.2,2.4,3,3.9s1.1,3.5,1.1,5.7
	c0,4.4-1.6,7.8-4.7,10.2S179.5,463.1,173.9,463.1L173.9,463.1z"/>
<path class="st1" d="M202,428.3c-1.7,0-3-0.6-4.1-1.7s-1.6-2.5-1.6-4.1s0.5-3,1.6-4.1s2.5-1.7,4.1-1.7s3,0.6,4.1,1.7
	s1.6,2.5,1.6,4.1s-0.5,3-1.6,4.1C205,427.8,203.6,428.3,202,428.3z M196.4,462.4v-30.5h10.9v30.5H196.4L196.4,462.4z"/>
<polygon class="st1" points="235.5,431.8 228.8,431.8 228.8,419.2 217.9,419.2 217.9,431.8 211.2,431.8 211.2,440.9 217.9,440.9 
	217.9,462.4 228.8,462.4 228.8,440.9 235.5,440.9 "/>
<path class="st1" d="M267.3,438.5c-1.4-2.3-3.2-4.1-5.6-5.4s-5.1-2-8.2-2s-6,0.7-8.6,2.1c-2.5,1.4-4.5,3.3-6,5.7
	c-1.4,2.4-2.1,5.1-2.1,8.3s0.7,5.8,2.2,8.2s3.5,4.3,6.1,5.7s5.7,2.1,9.1,2.1c2.7,0,5.1-0.5,7.2-1.3c2.1-0.9,4-2.2,5.6-4l-5.7-5.6
	c-0.9,1-2,1.8-3.1,2.3c-1.2,0.5-2.5,0.7-3.9,0.7c-1.6,0-2.9-0.3-4-0.9s-1.9-1.5-2.5-2.7c-0.1-0.3-0.3-0.6-0.4-1l21.4-0.1
	c0.2-0.8,0.3-1.6,0.4-2.2s0.1-1.3,0.1-1.8C269.4,443.4,268.7,440.8,267.3,438.5L267.3,438.5z M250.1,439.9c1-0.6,2.2-1,3.5-1
	s2.4,0.3,3.3,0.8c0.9,0.6,1.5,1.4,2,2.5c0.1,0.4,0.3,0.8,0.4,1.2l-11.9,0.1c0.1-0.3,0.2-0.6,0.3-0.9
	C248.3,441.5,249,440.6,250.1,439.9L250.1,439.9z"/>
<path class="st2" d="M279.3,463c-1,0-1.9-0.4-2.6-1.1s-1-1.6-1-2.6s0.3-1.8,1-2.5s1.5-1,2.6-1s1.8,0.3,2.5,1s1,1.5,1,2.5
	s-0.3,1.9-1,2.6S280.3,463,279.3,463z"/>
<path class="st2" d="M304.7,463c-2.9,0-5.5-0.7-7.8-2s-4.1-3.2-5.5-5.5c-1.3-2.3-2-4.9-2-7.8s0.7-5.5,2-7.8s3.1-4.1,5.5-5.5
	s4.9-2,7.8-2c2.2,0,4.3,0.4,6.2,1.2s3.5,2,4.9,3.5l-2.9,3c-1-1.1-2.2-2-3.6-2.6s-2.9-0.9-4.6-0.9c-2,0-3.9,0.5-5.5,1.4
	s-2.9,2.3-3.8,3.9s-1.4,3.5-1.4,5.6s0.5,4,1.4,5.7s2.2,3,3.8,4s3.5,1.4,5.5,1.4c1.7,0,3.2-0.3,4.6-0.9s2.6-1.5,3.7-2.6l2.9,2.9
	c-1.4,1.5-3,2.7-5,3.6C309,462.6,306.9,463,304.7,463L304.7,463z"/>
<path class="st2" d="M334.8,463c-2.9,0-5.5-0.7-7.7-2.1c-2.3-1.4-4.1-3.2-5.5-5.6s-2-4.9-2-7.8s0.7-5.4,2-7.7
	c1.4-2.3,3.2-4.1,5.5-5.5s4.9-2,7.7-2s5.4,0.7,7.7,2s4.1,3.1,5.5,5.5c1.4,2.3,2,4.9,2,7.7s-0.7,5.5-2,7.8s-3.2,4.1-5.5,5.5
	C340.1,462.3,337.6,463,334.8,463L334.8,463z M334.8,458.7c2,0,3.9-0.5,5.5-1.4s2.9-2.3,3.8-4s1.4-3.6,1.4-5.7s-0.5-3.9-1.4-5.6
	c-0.9-1.6-2.2-2.9-3.8-3.9s-3.4-1.4-5.5-1.4s-3.9,0.5-5.5,1.4s-2.9,2.3-3.8,3.9s-1.4,3.5-1.4,5.6s0.5,4.1,1.4,5.8
	c0.9,1.7,2.2,3,3.8,4S332.7,458.8,334.8,458.7L334.8,458.7z"/>
<path class="st2" d="M380.1,418.2V438c-0.1-0.2-0.2-0.3-0.3-0.5c-1.2-1.6-2.6-2.8-4.5-3.7c-1.8-0.9-3.8-1.3-6-1.3
	c-2.7,0-5.1,0.7-7.3,2s-3.9,3.2-5.1,5.5s-1.9,4.9-1.9,7.8s0.6,5.5,1.9,7.8s3,4.1,5.1,5.5s4.6,2,7.4,2c2.2,0,4.2-0.5,6-1.4
	s3.3-2.2,4.4-3.8c0.1-0.1,0.2-0.3,0.3-0.5v5h4.4v-44.2L380.1,418.2L380.1,418.2z M379.1,453.4c-0.9,1.7-2,3-3.6,3.9
	c-1.5,1-3.3,1.4-5.4,1.4s-3.9-0.5-5.5-1.4s-2.9-2.2-3.8-3.9c-0.9-1.7-1.3-3.6-1.3-5.8s0.5-4.1,1.4-5.7c0.9-1.7,2.1-3,3.7-3.9
	c1.6-1,3.4-1.4,5.4-1.4s3.8,0.5,5.4,1.4c1.5,0.9,2.8,2.2,3.6,3.9c0.9,1.7,1.3,3.6,1.3,5.8S380,451.8,379.1,453.4z"/>
<path class="st2" d="M418.5,439.2c-1.2-2.1-2.8-3.8-4.9-5s-4.4-1.8-7.1-1.8s-5.4,0.7-7.7,2c-2.3,1.3-4.1,3.1-5.4,5.5s-2,4.9-2,7.8
	s0.7,5.5,2,7.9s3.2,4.2,5.5,5.5s5,2,7.9,2c2.3,0,4.5-0.4,6.6-1.3s3.8-2.1,5.1-3.8l-2.9-2.9c-1,1.3-2.3,2.3-3.8,2.9s-3.1,1-4.9,1
	c-2.2,0-4.1-0.5-5.8-1.4s-3-2.3-3.9-4c-0.7-1.2-1.1-2.6-1.3-4.1h24c0.1-0.6,0.2-1.1,0.2-1.5s0.1-0.8,0.1-1.1
	C420.3,443.8,419.7,441.4,418.5,439.2L418.5,439.2z M400.9,437.9c1.6-0.9,3.4-1.4,5.6-1.4c2,0,3.7,0.4,5.1,1.3s2.5,2.1,3.3,3.6
	c0.6,1.2,0.9,2.6,1,4.1h-20c0.2-1.4,0.6-2.7,1.2-3.8C398.1,440.1,399.3,438.8,400.9,437.9z"/>
<path class="st2" d="M436,463c-1.6,0-3.1-0.2-4.6-0.7s-2.8-1-4-1.8s-2.2-1.7-3.1-2.8l2.9-2.9c1.2,1.4,2.5,2.5,4,3.1
	c1.5,0.7,3.1,1,5,1s3.4-0.4,4.5-1.1c1.1-0.8,1.6-1.8,1.6-3.1c0-1.2-0.4-2.2-1.1-2.9c-0.8-0.7-1.8-1.2-3-1.7s-2.6-0.9-3.9-1.2
	c-1.4-0.4-2.7-0.9-3.9-1.5c-1.2-0.6-2.2-1.4-3-2.5s-1.2-2.5-1.2-4.3c0-1.7,0.4-3.1,1.2-4.3s2-2.2,3.5-2.9c1.5-0.7,3.3-1,5.4-1
	s4.2,0.4,6,1.2c1.8,0.8,3.2,2,4.3,3.5l-2.9,2.9c-0.8-1.1-1.9-2-3.2-2.6c-1.3-0.6-2.8-0.9-4.4-0.9c-1.9,0-3.3,0.4-4.3,1.1
	s-1.5,1.7-1.5,2.8s0.4,2,1.2,2.6c0.8,0.6,1.8,1.2,3,1.6s2.5,0.8,3.9,1.2s2.7,0.9,3.9,1.6c1.2,0.6,2.3,1.5,3,2.6s1.2,2.6,1.2,4.5
	c0,2.6-1,4.7-2.8,6.3C441.8,462.2,439.2,463,436,463L436,463z"/>
<path class="st1" d="M178,130.5V101c0-9.6,7.8-17.4,17.4-17.4h104.1c9.6,0,17.4,7.8,17.4,17.4v29.5l34.7,20.5v-50
	c0-28.7-23.4-52.1-52.1-52.1H195.4c-28.7,0-52.1,23.4-52.1,52.1v50L178,130.5z"/>
<path class="st1" d="M178,343.8V211.1l-34.7,20.5v112.2c0,28.7,23.4,52.1,52.1,52.1h34.9v-34.7h-34.9
	C185.8,361.2,178,353.4,178,343.8L178,343.8z"/>
<polygon class="st1" points="316.9,211.1 316.9,274.5 351.6,274.5 351.6,231.6 "/>
<path class="st2" d="M91.2,239.5c-5.9,0-11.7-3.1-15-8.5c-4.9-8.2-2.1-18.9,6.1-23.8l138.7-82c16.4-9.7,36.7-9.7,53,0l138.6,81.9
	c8.2,4.9,11,15.5,6.1,23.8c-4.9,8.2-15.5,11-23.8,6.1l-138.6-81.9c-5.4-3.2-12.2-3.2-17.7,0L100,237
	C97.3,238.7,94.2,239.5,91.2,239.5L91.2,239.5z"/>
<path class="st2" d="M351.6,395.9h-104v-104h104V395.9z M282.4,361.2h34.5v-34.5h-34.5V361.2z"/>
<g>
	<polygon class="st2" points="436.5,418.1 430.4,418.1 430.4,419.3 432.8,419.3 432.8,425.7 434,425.7 434,419.3 436.5,419.3 	"/>
	<polygon class="st2" points="444.1,418.1 441.2,422.8 438.5,418.1 437.6,418.1 437.6,425.7 438.8,425.7 438.8,420.8 440.9,424.2 
		441.7,424.2 443.7,420.8 443.7,425.7 445,425.7 445,418.1 	"/>
</g>
</svg>
